<svg xmlns="http://www.w3.org/2000/svg" xml:space="preserve" width="960" height="960" viewBox="0 0 254 254"><path d="M14.16 176.12c-3.33-1.38-6.058-3.878-7.795-7.138L5.1 166.609v-93.02l1.324-2.697c1.558-3.173 3.802-5.281 7.434-6.985l2.632-1.234h46.985l2.965 1.37c3.07 1.418 6.016 4.153 7.536 7 1.19 2.227 1.423 12.906 1.266 58.05l-.127 36.522-.75 2.256c-.964 2.904-4.484 6.664-7.568 8.085l-2.373 1.094-23.73.116-23.73.116zm51.926-3.866c1.816-1.026 3.044-2.17 4.034-3.76l1.424-2.285.126-45.54.125-45.54-1.136-2.482c-1.127-2.462-2.774-4.046-5.997-5.765l-1.66-.887H17.44l-2.764 1.357c-6.828 3.353-6.58 1.262-6.403 54.17l.149 44.138 1.054 1.97c3.265 6.106 4.304 6.31 31.456 6.194l22.543-.096zm-44.137-5.084c-2.842-1.485-3.852-2.476-5.09-4.998l-1.317-2.682V78.653l1.43-2.035c.787-1.119 2.175-2.472 3.085-3.007l1.655-.972 17.322-.15c21.055-.18 22.356.072 24.614 4.78l.965 2.015.09 39.865.089 39.866-.8 1.899c-.988 2.34-3.267 4.771-5.6 5.974l-1.76.907-16.748-.002c-12.854-.002-17.025-.147-17.935-.622zm35.446-2.832c.826-.459-2.51-.547-16.31-.43-11.392.095-17.844-.028-18.793-.359-2.023-.705-2.254-.189-.296.66 2.151.935 33.742 1.049 35.399.129m.813-3.849c.872-.364 1.933-1.159 2.358-1.766l.774-1.105V79.594l-1.202-1.429c-1.953-2.321-2.927-2.429-20.63-2.272l-16.373.144-1.58.824c-3.026 1.58-2.928.183-2.928 41.728 0 41.76-.112 40.227 3.03 41.654l1.953.887 16.507.01c13.063.009 16.838-.127 18.091-.65zM26.79 94.14c-.83-.83-.7-1.66.375-2.412.52-.364 1.566-1.52 2.325-2.567s2.223-2.79 3.253-3.873l1.873-1.97h11.108l2.231 2.265c3.538 3.59 6.038 7.546 5.317 8.414-.782.942-25.55 1.075-26.482.142m19.838-5.126L44.64 86.64h-8.253l-2.337 2.373-2.337 2.373h16.9zm132.983 87.384c-4.741-1.654-8.592-5.935-9.568-10.637-.83-3.996-.443-91.143.415-93.44 3.321-8.9 6.648-9.867 34.004-9.877 28.426-.01 31.631.921 34.87 10.139l.93 2.644v90.16l-.94 2.51c-1.355 3.62-3.362 5.79-7.016 7.59l-3.175 1.564-23.504.112-23.503.112zm49.293-3.19c3.641-1.071 6.787-4.346 7.546-7.855.4-1.85.51-14.524.401-46.677l-.149-44.137-1.04-1.944c-1.211-2.264-3.87-4.731-6.281-5.828l-1.696-.771h-45.56l-2.142.991c-2.614 1.21-5.11 3.632-6.057 5.876-1.013 2.401-.967 91.671.048 94.095 1.382 3.297 4.277 5.63 8.15 6.566 3.178.77 44.03.493 46.78-.316m-42.65-6.205c-6.125-3.018-6.028-2.244-6.028-48.364V79.209l1.424-2.293c.886-1.426 2.14-2.667 3.322-3.285l1.898-.992h36.614l1.923 1.273c1.058.7 2.43 2.089 3.05 3.085l1.127 1.812.129 39.352c.153 46.48.243 45.78-6.266 48.736l-1.932.877H187.82zm37.248-2.772c2.187-.914 1.762-1.41-.637-.743-2.422.672-34.268.693-36.03.024-1.765-.672-2.008-.223-.363.669 1.993 1.08 34.46 1.123 37.03.05m.472-4.311c2.602-1.935 2.51-.443 2.515-40.77.005-40.251 0-40.318-2.44-42.055l-1.466-1.044-17.402-.044-17.402-.045-1.278.838c-.703.46-1.607 1.337-2.008 1.95l-.73 1.112.017 39.097.016 39.097 1.19 1.192 1.192 1.192 10.312.27c5.672.15 13.875.256 18.23.238l7.916-.033zm-24.06-5.342c-4.519-2.401-5.426-7.814-1.691-10.091 3.413-2.082 13.355-1.047 15.196 1.58 4.034 5.761-6.357 12.31-13.505 8.511m9.825-3.475c2.914-2.738 1.104-4.264-4.848-4.088l-4.62.136-.698 1.055-.7 1.055 1.437 1.437 1.437 1.437h3.447c2.885 0 3.625-.168 4.545-1.032M93.63 135.447c-6.035-5.524-6.032-5.31-.142-10.801 4.687-4.37 5.69-4.897 6.79-3.572.524.632.14 1.214-2.659 4.034l-3.27 3.296h60.896l.308.972c.762 2.4 1.423 2.35-31.11 2.35H94.169l3.044 2.923c3.246 3.117 3.588 3.871 2.113 4.66-.803.43-1.583-.099-5.695-3.862m52.029-13.055c-.854-.853-.037-2.233 2.88-4.866l3.197-2.885H89.786l-.298-.777c-.164-.427-.08-1.12.185-1.542l.483-.766 30.543-.122 30.542-.122-3.028-3.056c-3.043-3.07-3.4-4.53-1.105-4.53 1.258 0 10.16 8.602 10.003 9.667-.309 2.097-10.413 10.038-11.451 9" style="fill:#000;stroke-width:1.17812"/></svg>