<svg xmlns="http://www.w3.org/2000/svg" xml:space="preserve" width="960" height="960" viewBox="0 0 254 254"><path d="M115.37 217.762c-16.587-1.81-31.984-7.218-43.214-15.18l-3.622-2.568-.18 6c-.138 4.568-.293 6.002-.648 6.002-.256 0-3.04-5.286-6.184-11.746-5.986-12.298-6.377-13.5-4.094-12.596.543.215 6.326 1.741 12.852 3.391 6.525 1.65 11.96 3.095 12.076 3.212.45.45-.463.74-5.921 1.887-5.297 1.113-6.253 1.39-5.883 1.705.082.07 1.858 1.243 3.945 2.606 12.374 8.08 26.044 12.71 42.208 14.294 6.068.594 19.587.206 25.439-.731 22.887-3.666 40.419-14.149 52.638-31.476 2.646-3.752 3.692-4.399 4.444-2.748.365.8.263 1.171-.81 2.947-4.259 7.055-14.54 17.348-22.004 22.032-5.486 3.442-13.485 7.156-19.39 9.002-12.752 3.988-28.08 5.447-41.653 3.967zm73.678-14.794c-.422-.508-.417-.737.028-1.519.459-.804 1.04-1.024 4.608-1.74 19.7-3.956 33.638-14.972 38.517-30.44 2.884-9.146 2.488-20.171-1.12-31.158l-1.365-4.156-.18 14.636c-.204 16.445.035 15.03-3.238 19.154-2.108 2.656-3.847 4.099-5.755 4.776-1.027.365-8.143.464-33.11.464H155.63l-1.682-.988c-1.248-.734-1.923-1.474-2.62-2.872l-.938-1.883V126.54c0-45.217-.11-43.123 2.393-45.893.698-.773 1.868-1.617 2.6-1.876 2.044-.725 66.927-.69 68.731.037 1.67.673 3.142 2.05 4.09 3.828.746 1.397.78 2.019 1.013 18.611.133 9.442.26 19.315.28 21.941.033 4.17.124 4.856.717 5.421 2.043 1.947 5.261 11.907 6.372 19.72 2.264 15.925-2.756 31.078-13.448 40.59-7.17 6.38-16.58 11.094-26.496 13.272-6.386 1.404-7.02 1.468-7.594.776zm31-32.683c.845-.384 1.536-.787 1.536-.896 0-.11-13.733-.198-30.517-.198h-30.518l-1.014.892-1.014.892 29.996.004c28.86.002 30.054-.023 31.531-.694zm-62.96-.232c1.084-.71 1.147-1.224.15-1.224-.834 0-2.732-.889-3.688-1.728-.889-.779-1.145-.339-.514.882.708 1.368 1.75 2.262 3.058 2.625.057.015.504-.234.994-.555zm66.484-3.754c1.334-.667 2.043-1.328 2.71-2.53l.904-1.626-.092-38.488-.092-38.489-.816-1.593c-.548-1.07-1.288-1.84-2.257-2.349-1.426-.748-1.77-.757-33.605-.857-28.784-.09-32.325-.04-33.69.478a6.1 6.1 0 0 0-3.699 4.062c-.408 1.472-.552 75.367-.15 77.378.375 1.877 2.56 4.01 4.652 4.54 1.397.355 8.893.45 33.067.418l31.261-.04zm-60.268-12.739c-.327-.248-.756-.887-.953-1.42-.327-.881-.089-28.082.47-53.602l.173-7.95.946-.813.946-.814h25.263c24.876 0 25.274.011 25.943.73.76.815.895 5.086 1.393 44.116l.239 18.645-.78.78-.78.78H190.03c-20.347 0-26.263-.1-26.727-.452zm52.146-2.643c.329-.866.504-3.771.227-3.771-.069 0-.679.282-1.355.627-1.13.577-3.132.629-24.721.633-18.898.004-23.656-.09-24.335-.477-.464-.264-.879-.427-.921-.361s-.014 1.055.064 2.198l.142 2.078h50.546zm-2.04-4.84c.5-.19 1.186-.769 1.526-1.287.578-.882.59-2.614.193-27.03-.384-23.67-.48-26.13-1.029-26.54-.778-.582-47.098-.664-48.179-.086-.376.201-.764.892-.862 1.536-.098.643-.28 12.59-.402 26.55l-.223 25.38.912.911.912.912h23.122c13.82 0 23.488-.14 24.03-.345zm-30.384-49.76c-.49-1.278.815-1.574 6.961-1.574 4.737 0 5.935.103 6.296.538.245.295.352.783.236 1.084-.176.46-1.244.547-6.737.547-5.725 0-6.556-.074-6.756-.595zM51.006 201.46c-3.295-.574-10.006-2.504-13.12-3.773-14.166-5.773-22.995-14.744-26.172-26.593-.843-3.143-.948-4.202-.956-9.673-.008-5.545.085-6.492.957-9.717.532-1.966 1.298-4.258 1.704-5.095.709-1.465.744-2.348.944-23.712.114-12.205.32-26.012.46-30.683.238-8.043.297-8.574 1.115-10.024 1.078-1.912 2.91-3.204 5.253-3.705 1.226-.262 12.155-.354 33.971-.285l32.164.1 1.805.903c2.187 1.095 3.663 3.1 4.126 5.602.187 1.013.38 19.358.44 41.742l.105 39.935-.831 1.716c-.97 2.004-2.787 3.624-4.671 4.165-2.05.588-61.077 1.019-63.745.465-2.676-.556-3.943-1.45-6.704-4.73-2.697-3.204-3.346-5-3.346-9.273 0-1.653-.15-3.006-.332-3.006-.528 0-.87 4.508-.607 7.994.811 10.74 6.5 19.93 16.258 26.267 6.591 4.28 13.229 6.736 23.255 8.605.97.181 1.468 1.707.814 2.494-.438.528-1.099.593-2.887.281zm32.47-30.686c.961-.192 1.068-.32.755-.904-.351-.657-1.388-.68-31.322-.68-22.076 0-30.847.112-30.57.389 1.338 1.338 2.419 1.386 31.604 1.403 15.628.008 28.918-.085 29.533-.208zm4.585-.662c1.377-.575 3.06-2.198 3.06-2.951 0-.324-.413-.198-1.277.388-.702.477-1.757.972-2.345 1.101-1.21.266-1.593.697-1.3 1.461.248.648.314.648 1.862.001zm-1.964-3.104c2.017-.536 3.637-1.819 4.557-3.608l.841-1.634-.01-38.03c-.008-34.017-.07-38.181-.588-39.475-.706-1.765-2.23-3.105-4.106-3.61-.943-.254-11.913-.346-33.322-.28-31.545.096-31.934.106-33.362.85-.926.483-1.763 1.321-2.327 2.333l-.881 1.58-.022 38.505-.023 38.504.805 1.506c.912 1.705 2.257 2.79 4.087 3.299 1.683.467 62.608.524 64.35.06zM27.465 153.32l-.853-.692.133-20.359c.073-11.197.235-25.211.361-31.142.223-10.501.25-10.8 1.015-11.42.706-.571 2.182-.663 14.385-.9 7.479-.144 18.887-.144 25.35 0 10.443.233 11.84.333 12.54.9.777.628.79.82 1.014 14.853.125 7.82.35 21.724.5 30.9l.273 16.682-.935.935-.936.936H54.315c-25.082 0-26.027-.024-26.85-.693zm52.38-3.933.108-2.277-1.08.558c-.939.486-4.152.561-24.8.584-21.094.023-23.818-.037-24.597-.548l-.876-.574v2.116c0 1.164.11 2.226.243 2.36.134.134 11.64.202 25.569.15l25.325-.092zm-1.913-3.53c2.143-1.017 2.122-.74 1.667-22.3-.227-10.779-.411-22.268-.409-25.532.004-5.02-.087-6.036-.593-6.595-.568-.627-1.793-.661-24.174-.661-21.937 0-23.625.044-24.294.632-.697.614-.73 1.4-1.127 26.17-.287 18-.295 25.841-.025 26.563.894 2.394-.43 2.273 24.866 2.282 20.067.007 23.041-.062 24.09-.56zm-30.43-49.539c-.49-1.278.816-1.574 6.962-1.574 4.76 0 5.934.101 6.3.542.359.433.359.652 0 1.085-.369.443-1.59.542-6.742.542-5.504 0-6.32-.075-6.52-.595zM57.585 71.18c-.866-.865-.377-1.714 2.728-4.738 13.807-13.446 30.65-20.766 53.014-23.037 5.348-.543 16.614-.258 21.885.553 10.024 1.544 20.633 4.964 28.533 9.2a500 500 0 0 0 3.433 1.832c.01 0-.035-2.439-.099-5.42-.099-4.608-.036-5.422.42-5.422.33 0 1.857 2.54 3.965 6.596 1.884 3.627 4.238 8.053 5.23 9.836 1.78 3.201 1.985 4.168.88 4.168-.311 0-4.807-.663-9.99-1.472l-11.05-1.725c-.894-.14-1.626-.406-1.626-.592 0-.187 2.236-1.044 4.97-1.907 2.732-.862 4.968-1.696 4.968-1.855 0-.412-7.16-3.754-11.688-5.455-7.002-2.63-15.482-4.634-22.825-5.395-5.37-.557-16.293-.232-22.045.655C89.57 49.89 74.95 56.76 62.71 68.421c-3.275 3.12-4.244 3.641-5.125 2.76z" style="fill:#000;stroke-width:2.64583328;stroke-dasharray:none;fill-opacity:1;stroke:#000;stroke-opacity:1"/></svg>